<?xml version="1.0" encoding="utf-8"?>
<!-- Generator: Adobe Illustrator 20.0.0, SVG Export Plug-In . SVG Version: 6.00 Build 0)  -->
<svg version="1.1" id="Layer_1" xmlns="http://www.w3.org/2000/svg" xmlns:xlink="http://www.w3.org/1999/xlink" x="0px" y="0px"
	 viewBox="0 0 200 200" style="enable-background:new 0 0 200 200;" xml:space="preserve">
<style type="text/css">
	.st0{fill:#222326;}
	.st1{fill:#F9F7F7;}
</style>
<path class="st0" d="M0,0h200v200H0V0z"/>
<g>
	<path class="st1" d="M93.2,64.6c0,4-1.3,7.5-4.2,10.3c-2.8,2.8-6.2,4.3-10.1,4.3H64.6v14.5h-7.1V71.8h7.1h14.3c1.9,0,3.6-0.7,5-2.1
		c1.4-1.4,2.1-3.1,2.1-5.1c0-2-0.7-3.7-2.1-5.1c-1.4-1.4-3.1-2.1-5-2.1H64.6L57.5,50h21.4c3.9,0,7.3,1.4,10.1,4.3
		C91.8,57.1,93.2,60.6,93.2,64.6z"/>
</g>
<g>
	<path class="st1" d="M128.1,78.2l9.5,15.5h-8.8L115.3,72l6.9,0.1c2.1,0,3.9-0.7,5.4-2.1c1.6-1.4,2.3-3.1,2.3-5.1
		c0-1.9-0.8-3.6-2.3-5c-1.5-1.4-3.3-2.1-5.4-2.1h-15.4l-0.9-0.8l-4-6.4h20.3c4.2,0,7.9,1.4,10.9,4.2c3,2.9,4.5,6.2,4.5,10.2
		c0,3-0.9,5.7-2.7,8.2C133.1,75.4,130.8,77.1,128.1,78.2z"/>
</g>
<g>
	<path class="st1" d="M91.7,112.1v6.5H65.8l-8.6-6.5H91.7z M65.8,128.3h25.9v6.5H65.8h-8.6v-6.5H65.8z M65.8,144.5h25.9v6.5H57.2
		v-0.5L65.8,144.5z"/>
</g>
<g>
	<path class="st1" d="M101.9,110.9l18.1,20.1l18.1-20.1V151h-6v-24L120,140.4l-18.1-20.2V110.9z"/>
</g>
</svg>
